<?xml version="1.0" encoding="UTF-8"?>
<svg id="Layer_1" xmlns="http://www.w3.org/2000/svg" version="1.1" xmlns:xlink="http://www.w3.org/1999/xlink" viewBox="0 0 553.4 516.84">
  <!-- Generator: Adobe Illustrator 30.1.0, SVG Export Plug-In . SVG Version: 2.1.1 Build 136)  -->
  <defs>
    <radialGradient id="radial-gradient" cx="360.45" cy="443.25" fx="360.45" fy="443.25" r="40.75" gradientUnits="userSpaceOnUse">
      <stop offset="0" stop-color="#8cdec2"/>
      <stop offset="1" stop-color="#39b19c"/>
    </radialGradient>
    <radialGradient id="radial-gradient1" cx="186.15" cy="442.08" fx="186.15" fy="442.08" r="40.22" xlink:href="#radial-gradient"/>
    <linearGradient id="linear-gradient" x1="453.87" y1="358.93" x2="488.24" y2="353.6" gradientUnits="userSpaceOnUse">
      <stop offset="0" stop-color="#46bda7"/>
      <stop offset="1" stop-color="#6bd6c1"/>
    </linearGradient>
    <linearGradient id="linear-gradient1" x1="63.38" y1="357.54" x2="103.09" y2="362.28" gradientUnits="userSpaceOnUse">
      <stop offset="0" stop-color="#b7e7c2"/>
      <stop offset="1" stop-color="#80c9a0"/>
    </linearGradient>
    <linearGradient id="linear-gradient2" x1="61" y1="254.74" x2="489.46" y2="254.74" gradientUnits="userSpaceOnUse">
      <stop offset="0" stop-color="#caedcf"/>
      <stop offset="1" stop-color="#6fd8c3"/>
    </linearGradient>
    <linearGradient id="linear-gradient3" x1="69.9" y1="235.37" x2="462.85" y2="235.37" gradientUnits="userSpaceOnUse">
      <stop offset="0" stop-color="#e8fcf1"/>
      <stop offset="1" stop-color="#e7fdf1"/>
    </linearGradient>
    <linearGradient id="linear-gradient4" x1="118.97" y1="360.46" x2="118.97" y2="86.87" gradientUnits="userSpaceOnUse">
      <stop offset="0" stop-color="#f4fef5"/>
      <stop offset=".46" stop-color="#fff"/>
      <stop offset=".74" stop-color="#fff"/>
      <stop offset="1" stop-color="#dbfaee"/>
    </linearGradient>
  </defs>
  <path d="M324.45,446.21s12.15,20.44,48,11.26c0,0,24.3-7.11,24-30.81l-72,19.56Z" fill="url(#radial-gradient)"/>
  <path d="M153.12,424.88s-3.78,24.89,26.44,33.33c0,0,27.11,6.44,39.78-12.22l-66.22-21.11Z" fill="url(#radial-gradient1)"/>
  <path d="M481.79,324.73s20.44,27.56,4.44,49.19c0,0-10.79,15.56-33.99,14l29.54-63.19Z" fill="url(#linear-gradient)"/>
  <path d="M69.19,331.25s-13.68,23.88-1.24,42.32c0,0,10.83,17.37,31,13.89l-29.76-56.21Z" fill="url(#linear-gradient1)"/>
  <path d="M267.12,57.32s102.67-10.22,176.44,84.89c0,0,56.89,71.56,44,167.11,0,0-4.44,132.89-198.22,142.67,0,0-182.67,15.11-220.44-121.78,0,0-40.44-124.89,61.78-216.44,0,0,53.33-52.44,136.44-56.44Z" fill="url(#linear-gradient2)"/>
  <path d="M83.12,187.1c-42.22,125.33,30.22,180.44,30.22,180.44,64.44,58.22,186.67,44.89,186.67,44.89,142.22-10.22,157.33-112,157.33-112,27.11-104.44-54.67-185.78-54.67-185.78-22.29-24.32-47.28-39.67-70.67-49.34-37.07-10.75-64.88-7.99-64.88-7.99-46.44,2.23-83.57,19.59-107.31,34.48-58.69,43.43-76.69,95.3-76.69,95.3Z" fill="url(#linear-gradient3)"/>
  <path d="M119.42,140.73s16.09-21.61,48.62-53.85c-2.89,1.65-5.64,3.3-8.22,4.92-58.69,43.43-76.69,95.3-76.69,95.3-33.57,99.64,5.33,154.89,22.7,173.36-12.29-17.25-30.55-50.26-30.55-94.1,0,0-3.26-68.44,44.15-125.63Z" fill="url(#linear-gradient4)"/>
  <path d="M169.51,94.46c1.6-1.04,3.18-2.06,4.68-3.07,8.9-5.99,18.33-11.43,28.68-14.48,4.61-1.36,9.41-2.23,14.21-1.99,3.29.16,6.92,1.1,8.64,3.91,1.19,1.95,1.19,4.42.66,6.64-.74,3.13-2.41,5.96-4.26,8.59-7.7,10.95-18.66,19.24-30.28,25.89-7.33,4.19-15.29,7.9-23.8,8.72-6.63.63-15.57-1.48-17.56-8.9-.88-3.26.08-6.79,1.77-9.72,3.81-6.61,10.73-11.31,17.28-15.58Z" fill="#fafffa"/>
  <path d="M130.45,262.65s34.89-1.56,45.11,26c0,0,7.78,22-23.33,30.22,0,0-34.67,8.67-51.78-10.44,0,0-12.22-10.44-4-27.56,0,0,10-17.11,34-18.22Z" fill="#ffc4bd"/>
  <path d="M398.06,262.65s-34.89-1.56-45.11,26c0,0-7.78,22,23.33,30.22,0,0,34.67,8.67,51.78-10.44,0,0,12.22-10.44,4-27.56,0,0-10-17.11-34-18.22Z" fill="#ffc4bd"/>
  <ellipse cx="184.11" cy="238.28" rx="36.75" ry="31.7" transform="translate(-67.34 403.96) rotate(-85.69)" fill="#2d3132"/>
  <ellipse cx="344.41" cy="238.28" rx="31.7" ry="36.75" transform="translate(-16.94 26.56) rotate(-4.31)" fill="#2d3132"/>
  <circle cx="173.93" cy="221.02" r="10.37" fill="#fff"/>
  <circle cx="195.96" cy="229.82" r="7.11" fill="#fff"/>
  <circle cx="332.75" cy="221.02" r="10.37" fill="#fff"/>
  <circle cx="354.77" cy="229.82" r="7.11" fill="#fff"/>
  <path d="M171.66,158.42c1.82-1.22,3.69-2.35,5.62-3.39,2.18-1.17,4.5-2.25,6.97-2.3,1.8-.04,3.95.85,4.15,2.64.14,1.28-.78,2.41-1.71,3.31-2.08,2.02-4.45,3.73-7.03,5.06s-5.08,2.97-7.71,4.15c-2.26,1.02-4.64,1.79-7.07,2.29-1.19.24-2.72.27-3.27-.81-.33-.64-.14-1.43.17-2.08.67-1.43,1.85-2.56,3.04-3.6,2.16-1.9,4.45-3.66,6.84-5.27Z" fill="#369d80"/>
  <path d="M358.33,158.42c-1.82-1.22-3.69-2.35-5.62-3.39-2.18-1.17-4.5-2.25-6.97-2.3-1.8-.04-3.95.85-4.15,2.64-.14,1.28.78,2.41,1.71,3.31,2.08,2.02,4.45,3.73,7.03,5.06s5.08,2.97,7.71,4.15c2.26,1.02,4.64,1.79,7.07,2.29,1.19.24,2.72.27,3.27-.81.33-.64.14-1.43-.17-2.08-.67-1.43-1.85-2.56-3.04-3.6-2.16-1.9-4.45-3.66-6.84-5.27Z" fill="#369d80"/>
  <path d="M242.38,290.25s5.93,11.56,23.85,11.26c0,0,13.63-.74,19.85-11.11" fill="none" stroke="#000" stroke-linecap="round" stroke-linejoin="round" stroke-width="4.5"/>
</svg>